<mxfile host="Electron" modified="2023-06-15T19:52:06.237Z" agent="Mozilla/5.0 (Macintosh; Intel Mac OS X 10_15_7) AppleWebKit/537.36 (KHTML, like Gecko) draw.io/21.1.2 Chrome/106.0.5249.199 Electron/21.4.3 Safari/537.36" etag="99ObhyA1WfXjOM1yLUlJ" version="21.1.2" type="device">
  <diagram name="Page-1" id="C87YD3-ovhG-YgOMG43o">
    <mxGraphModel dx="1444" dy="995" grid="1" gridSize="10" guides="1" tooltips="1" connect="1" arrows="1" fold="1" page="1" pageScale="1" pageWidth="827" pageHeight="1169" math="0" shadow="0">
      <root>
        <mxCell id="0" />
        <mxCell id="1" parent="0" />
        <mxCell id="JGsPzibXXvfBemh5J5Uq-2" value="" style="swimlane;startSize=0;fillColor=#FFFFFF;" vertex="1" parent="1">
          <mxGeometry x="60" y="80" width="950" height="670" as="geometry" />
        </mxCell>
        <mxCell id="JGsPzibXXvfBemh5J5Uq-18" style="rounded=0;orthogonalLoop=1;jettySize=auto;html=1;exitX=0;exitY=0.3333333333333333;exitDx=0;exitDy=0;exitPerimeter=0;" edge="1" parent="JGsPzibXXvfBemh5J5Uq-2" source="JGsPzibXXvfBemh5J5Uq-3" target="JGsPzibXXvfBemh5J5Uq-6">
          <mxGeometry relative="1" as="geometry" />
        </mxCell>
        <mxCell id="JGsPzibXXvfBemh5J5Uq-19" style="rounded=0;orthogonalLoop=1;jettySize=auto;html=1;exitX=0;exitY=1;exitDx=0;exitDy=0;exitPerimeter=0;" edge="1" parent="JGsPzibXXvfBemh5J5Uq-2" source="JGsPzibXXvfBemh5J5Uq-3" target="JGsPzibXXvfBemh5J5Uq-11">
          <mxGeometry relative="1" as="geometry" />
        </mxCell>
        <mxCell id="JGsPzibXXvfBemh5J5Uq-20" style="rounded=0;orthogonalLoop=1;jettySize=auto;html=1;exitX=1;exitY=1;exitDx=0;exitDy=0;exitPerimeter=0;" edge="1" parent="JGsPzibXXvfBemh5J5Uq-2" source="JGsPzibXXvfBemh5J5Uq-3" target="JGsPzibXXvfBemh5J5Uq-8">
          <mxGeometry relative="1" as="geometry" />
        </mxCell>
        <mxCell id="JGsPzibXXvfBemh5J5Uq-22" style="rounded=0;orthogonalLoop=1;jettySize=auto;html=1;entryX=0.5;entryY=0;entryDx=0;entryDy=0;exitX=1;exitY=1;exitDx=0;exitDy=0;exitPerimeter=0;" edge="1" parent="JGsPzibXXvfBemh5J5Uq-2" source="JGsPzibXXvfBemh5J5Uq-3" target="JGsPzibXXvfBemh5J5Uq-7">
          <mxGeometry relative="1" as="geometry" />
        </mxCell>
        <mxCell id="JGsPzibXXvfBemh5J5Uq-23" style="rounded=0;orthogonalLoop=1;jettySize=auto;html=1;exitX=1;exitY=0.3333333333333333;exitDx=0;exitDy=0;exitPerimeter=0;" edge="1" parent="JGsPzibXXvfBemh5J5Uq-2" source="JGsPzibXXvfBemh5J5Uq-3" target="JGsPzibXXvfBemh5J5Uq-10">
          <mxGeometry relative="1" as="geometry">
            <mxPoint x="570" y="70" as="sourcePoint" />
          </mxGeometry>
        </mxCell>
        <mxCell id="JGsPzibXXvfBemh5J5Uq-24" style="rounded=0;orthogonalLoop=1;jettySize=auto;html=1;entryX=1;entryY=0;entryDx=0;entryDy=0;exitX=0.5;exitY=0.5;exitDx=0;exitDy=0;exitPerimeter=0;" edge="1" parent="JGsPzibXXvfBemh5J5Uq-2" source="JGsPzibXXvfBemh5J5Uq-3" target="JGsPzibXXvfBemh5J5Uq-14">
          <mxGeometry relative="1" as="geometry">
            <mxPoint x="110" y="250" as="sourcePoint" />
          </mxGeometry>
        </mxCell>
        <mxCell id="JGsPzibXXvfBemh5J5Uq-38" style="rounded=0;orthogonalLoop=1;jettySize=auto;html=1;entryX=0.643;entryY=0;entryDx=0;entryDy=0;entryPerimeter=0;exitX=0;exitY=1;exitDx=0;exitDy=0;exitPerimeter=0;" edge="1" parent="JGsPzibXXvfBemh5J5Uq-2" source="JGsPzibXXvfBemh5J5Uq-3" target="JGsPzibXXvfBemh5J5Uq-13">
          <mxGeometry relative="1" as="geometry" />
        </mxCell>
        <mxCell id="JGsPzibXXvfBemh5J5Uq-3" value="Менеджер" style="shape=umlActor;verticalLabelPosition=bottom;verticalAlign=top;html=1;outlineConnect=0;" vertex="1" parent="JGsPzibXXvfBemh5J5Uq-2">
          <mxGeometry x="540" y="130" width="30" height="60" as="geometry" />
        </mxCell>
        <mxCell id="JGsPzibXXvfBemh5J5Uq-25" value="include" style="rounded=0;orthogonalLoop=1;jettySize=auto;html=1;entryX=0;entryY=0.5;entryDx=0;entryDy=0;dashed=1;" edge="1" parent="JGsPzibXXvfBemh5J5Uq-2" source="JGsPzibXXvfBemh5J5Uq-6" target="JGsPzibXXvfBemh5J5Uq-11">
          <mxGeometry relative="1" as="geometry" />
        </mxCell>
        <mxCell id="JGsPzibXXvfBemh5J5Uq-6" value="Зарегистрировать клиента" style="ellipse;whiteSpace=wrap;html=1;" vertex="1" parent="JGsPzibXXvfBemh5J5Uq-2">
          <mxGeometry x="90" y="240" width="140" height="70" as="geometry" />
        </mxCell>
        <mxCell id="JGsPzibXXvfBemh5J5Uq-7" value="Обновить данные клиента" style="ellipse;whiteSpace=wrap;html=1;" vertex="1" parent="JGsPzibXXvfBemh5J5Uq-2">
          <mxGeometry x="610" y="440" width="140" height="70" as="geometry" />
        </mxCell>
        <mxCell id="JGsPzibXXvfBemh5J5Uq-39" style="rounded=0;orthogonalLoop=1;jettySize=auto;html=1;dashed=1;entryX=0.299;entryY=0.937;entryDx=0;entryDy=0;entryPerimeter=0;" edge="1" parent="JGsPzibXXvfBemh5J5Uq-2" source="JGsPzibXXvfBemh5J5Uq-8" target="JGsPzibXXvfBemh5J5Uq-7">
          <mxGeometry relative="1" as="geometry" />
        </mxCell>
        <mxCell id="JGsPzibXXvfBemh5J5Uq-40" value="include" style="edgeLabel;html=1;align=center;verticalAlign=middle;resizable=0;points=[];" vertex="1" connectable="0" parent="JGsPzibXXvfBemh5J5Uq-39">
          <mxGeometry x="-0.0864" y="-1" relative="1" as="geometry">
            <mxPoint x="1" as="offset" />
          </mxGeometry>
        </mxCell>
        <mxCell id="JGsPzibXXvfBemh5J5Uq-41" value="include" style="rounded=0;orthogonalLoop=1;jettySize=auto;html=1;entryX=1;entryY=1;entryDx=0;entryDy=0;dashed=1;exitX=0;exitY=0.5;exitDx=0;exitDy=0;" edge="1" parent="JGsPzibXXvfBemh5J5Uq-2" source="JGsPzibXXvfBemh5J5Uq-8" target="JGsPzibXXvfBemh5J5Uq-14">
          <mxGeometry relative="1" as="geometry" />
        </mxCell>
        <mxCell id="JGsPzibXXvfBemh5J5Uq-45" style="rounded=0;orthogonalLoop=1;jettySize=auto;html=1;entryX=0.5;entryY=1;entryDx=0;entryDy=0;exitX=0.978;exitY=0.259;exitDx=0;exitDy=0;exitPerimeter=0;dashed=1;" edge="1" parent="JGsPzibXXvfBemh5J5Uq-2" source="JGsPzibXXvfBemh5J5Uq-8" target="JGsPzibXXvfBemh5J5Uq-10">
          <mxGeometry relative="1" as="geometry" />
        </mxCell>
        <mxCell id="JGsPzibXXvfBemh5J5Uq-46" value="include" style="edgeLabel;html=1;align=center;verticalAlign=middle;resizable=0;points=[];" vertex="1" connectable="0" parent="JGsPzibXXvfBemh5J5Uq-45">
          <mxGeometry x="0.0594" y="1" relative="1" as="geometry">
            <mxPoint as="offset" />
          </mxGeometry>
        </mxCell>
        <mxCell id="JGsPzibXXvfBemh5J5Uq-8" value="Управлять заказ-нарядом" style="ellipse;whiteSpace=wrap;html=1;" vertex="1" parent="JGsPzibXXvfBemh5J5Uq-2">
          <mxGeometry x="520" y="580" width="140" height="70" as="geometry" />
        </mxCell>
        <mxCell id="JGsPzibXXvfBemh5J5Uq-10" value="Передать заявку в другое СТО/автомастерскую" style="ellipse;whiteSpace=wrap;html=1;" vertex="1" parent="JGsPzibXXvfBemh5J5Uq-2">
          <mxGeometry x="800" y="280" width="140" height="90" as="geometry" />
        </mxCell>
        <mxCell id="JGsPzibXXvfBemh5J5Uq-27" value="extend" style="rounded=0;orthogonalLoop=1;jettySize=auto;html=1;entryX=1;entryY=0;entryDx=0;entryDy=0;dashed=1;" edge="1" parent="JGsPzibXXvfBemh5J5Uq-2" source="JGsPzibXXvfBemh5J5Uq-11" target="JGsPzibXXvfBemh5J5Uq-13">
          <mxGeometry relative="1" as="geometry" />
        </mxCell>
        <mxCell id="JGsPzibXXvfBemh5J5Uq-42" style="rounded=0;orthogonalLoop=1;jettySize=auto;html=1;dashed=1;entryX=0.33;entryY=0.014;entryDx=0;entryDy=0;entryPerimeter=0;" edge="1" parent="JGsPzibXXvfBemh5J5Uq-2" source="JGsPzibXXvfBemh5J5Uq-11" target="JGsPzibXXvfBemh5J5Uq-8">
          <mxGeometry relative="1" as="geometry">
            <mxPoint x="400" y="670" as="targetPoint" />
          </mxGeometry>
        </mxCell>
        <mxCell id="JGsPzibXXvfBemh5J5Uq-43" value="include" style="edgeLabel;html=1;align=center;verticalAlign=middle;resizable=0;points=[];" vertex="1" connectable="0" parent="JGsPzibXXvfBemh5J5Uq-42">
          <mxGeometry x="0.1958" y="4" relative="1" as="geometry">
            <mxPoint y="-1" as="offset" />
          </mxGeometry>
        </mxCell>
        <mxCell id="JGsPzibXXvfBemh5J5Uq-44" value="include" style="rounded=0;orthogonalLoop=1;jettySize=auto;html=1;entryX=0;entryY=0.5;entryDx=0;entryDy=0;dashed=1;exitX=1;exitY=0.5;exitDx=0;exitDy=0;" edge="1" parent="JGsPzibXXvfBemh5J5Uq-2" source="JGsPzibXXvfBemh5J5Uq-11" target="JGsPzibXXvfBemh5J5Uq-10">
          <mxGeometry relative="1" as="geometry" />
        </mxCell>
        <mxCell id="JGsPzibXXvfBemh5J5Uq-11" value="Записать клиента" style="ellipse;whiteSpace=wrap;html=1;" vertex="1" parent="JGsPzibXXvfBemh5J5Uq-2">
          <mxGeometry x="430" y="330" width="126" height="40" as="geometry" />
        </mxCell>
        <mxCell id="JGsPzibXXvfBemh5J5Uq-28" style="rounded=0;orthogonalLoop=1;jettySize=auto;html=1;dashed=1;entryX=1;entryY=0.5;entryDx=0;entryDy=0;" edge="1" parent="JGsPzibXXvfBemh5J5Uq-2" source="JGsPzibXXvfBemh5J5Uq-13" target="JGsPzibXXvfBemh5J5Uq-14">
          <mxGeometry relative="1" as="geometry" />
        </mxCell>
        <mxCell id="JGsPzibXXvfBemh5J5Uq-29" value="include" style="edgeLabel;html=1;align=center;verticalAlign=middle;resizable=0;points=[];" vertex="1" connectable="0" parent="JGsPzibXXvfBemh5J5Uq-28">
          <mxGeometry x="-0.014" y="-2" relative="1" as="geometry">
            <mxPoint as="offset" />
          </mxGeometry>
        </mxCell>
        <mxCell id="JGsPzibXXvfBemh5J5Uq-30" style="rounded=0;orthogonalLoop=1;jettySize=auto;html=1;entryX=0;entryY=0;entryDx=0;entryDy=0;exitX=0.5;exitY=1;exitDx=0;exitDy=0;dashed=1;" edge="1" parent="JGsPzibXXvfBemh5J5Uq-2" source="JGsPzibXXvfBemh5J5Uq-13" target="JGsPzibXXvfBemh5J5Uq-8">
          <mxGeometry relative="1" as="geometry" />
        </mxCell>
        <mxCell id="JGsPzibXXvfBemh5J5Uq-32" value="include" style="edgeLabel;html=1;align=center;verticalAlign=middle;resizable=0;points=[];" vertex="1" connectable="0" parent="JGsPzibXXvfBemh5J5Uq-30">
          <mxGeometry x="-0.1473" y="2" relative="1" as="geometry">
            <mxPoint x="1" as="offset" />
          </mxGeometry>
        </mxCell>
        <mxCell id="JGsPzibXXvfBemh5J5Uq-33" value="include" style="rounded=0;orthogonalLoop=1;jettySize=auto;html=1;dashed=1;exitX=0;exitY=0;exitDx=0;exitDy=0;" edge="1" parent="JGsPzibXXvfBemh5J5Uq-2" source="JGsPzibXXvfBemh5J5Uq-13" target="JGsPzibXXvfBemh5J5Uq-6">
          <mxGeometry relative="1" as="geometry" />
        </mxCell>
        <mxCell id="JGsPzibXXvfBemh5J5Uq-34" style="rounded=0;orthogonalLoop=1;jettySize=auto;html=1;dashed=1;" edge="1" parent="JGsPzibXXvfBemh5J5Uq-2" source="JGsPzibXXvfBemh5J5Uq-13" target="JGsPzibXXvfBemh5J5Uq-7">
          <mxGeometry relative="1" as="geometry" />
        </mxCell>
        <mxCell id="JGsPzibXXvfBemh5J5Uq-35" value="include" style="edgeLabel;html=1;align=center;verticalAlign=middle;resizable=0;points=[];" vertex="1" connectable="0" parent="JGsPzibXXvfBemh5J5Uq-34">
          <mxGeometry x="-0.4632" y="-2" relative="1" as="geometry">
            <mxPoint as="offset" />
          </mxGeometry>
        </mxCell>
        <mxCell id="JGsPzibXXvfBemh5J5Uq-36" style="rounded=0;orthogonalLoop=1;jettySize=auto;html=1;dashed=1;entryX=0;entryY=1;entryDx=0;entryDy=0;" edge="1" parent="JGsPzibXXvfBemh5J5Uq-2" source="JGsPzibXXvfBemh5J5Uq-13" target="JGsPzibXXvfBemh5J5Uq-10">
          <mxGeometry relative="1" as="geometry" />
        </mxCell>
        <mxCell id="JGsPzibXXvfBemh5J5Uq-37" value="include" style="edgeLabel;html=1;align=center;verticalAlign=middle;resizable=0;points=[];" vertex="1" connectable="0" parent="JGsPzibXXvfBemh5J5Uq-36">
          <mxGeometry x="-0.2924" y="1" relative="1" as="geometry">
            <mxPoint as="offset" />
          </mxGeometry>
        </mxCell>
        <mxCell id="JGsPzibXXvfBemh5J5Uq-13" value="Принять авто в ремонт" style="ellipse;whiteSpace=wrap;html=1;" vertex="1" parent="JGsPzibXXvfBemh5J5Uq-2">
          <mxGeometry x="240" y="400" width="140" height="70" as="geometry" />
        </mxCell>
        <mxCell id="JGsPzibXXvfBemh5J5Uq-14" value="Заказать запчасти" style="ellipse;whiteSpace=wrap;html=1;" vertex="1" parent="JGsPzibXXvfBemh5J5Uq-2">
          <mxGeometry x="30" y="450" width="140" height="70" as="geometry" />
        </mxCell>
        <mxCell id="JGsPzibXXvfBemh5J5Uq-21" style="edgeStyle=orthogonalEdgeStyle;rounded=0;orthogonalLoop=1;jettySize=auto;html=1;exitX=0.5;exitY=1;exitDx=0;exitDy=0;" edge="1" parent="JGsPzibXXvfBemh5J5Uq-2" source="JGsPzibXXvfBemh5J5Uq-10" target="JGsPzibXXvfBemh5J5Uq-10">
          <mxGeometry relative="1" as="geometry" />
        </mxCell>
        <mxCell id="JGsPzibXXvfBemh5J5Uq-50" value="&lt;b&gt;&lt;font style=&quot;font-size: 26px;&quot;&gt;CRM Система&lt;/font&gt;&lt;/b&gt;" style="text;html=1;align=center;verticalAlign=middle;resizable=0;points=[];autosize=1;strokeColor=none;fillColor=none;" vertex="1" parent="JGsPzibXXvfBemh5J5Uq-2">
          <mxGeometry x="375" y="20" width="200" height="40" as="geometry" />
        </mxCell>
      </root>
    </mxGraphModel>
  </diagram>
</mxfile>
